<svg id="Layer_1" data-name="Layer 1" xmlns="http://www.w3.org/2000/svg" viewBox="0 0 573.09 798.73"><defs><style>.cls-1{font-size:614.04px;stroke-width:12px;font-family:InkFree, Ink Free;}.cls-1,.cls-3{stroke:#000;stroke-miterlimit:10;}.cls-2{fill:#fff;}.cls-3{fill:none;stroke-width:9px;}</style></defs><text class="cls-1" transform="matrix(1.11, 0.08, -0.09, 1, 23.9, 562.18)">E</text><path d="M558.07,554.59a223.56,223.56,0,0,0,67.16,7.82q9.71-.36,19.36-1.55c.95-.12,1-1.62,0-1.5a222.77,222.77,0,0,1-67.5-2c-6.26-1.15-12.48-2.58-18.62-4.27a.75.75,0,0,0-.4,1.45Z" transform="translate(-189.07 -40.26)"/><path class="cls-2" d="M605.6,483.58c-17.14,4.07-27.08,20.53-35.05,35.45-6.07,11.34-12.28,23.23-12.28,35.94,0,30.77,38.07,51.49,70.24,46.81s58.23-26.51,81.1-48.4c1.91-1.83,3.92-3.88,4.16-6.44.3-3.17-2.19-5.9-4.51-8.21L659.07,488.9c-6.68-6.62-13.58-13.4-22.37-17.23s-20-4-27.41,1.89" transform="translate(-189.07 -40.26)"/><path d="M601.22,467.67a36.14,36.14,0,0,0-4.67,1.47,69.7,69.7,0,0,0-7.94,3.56,60.27,60.27,0,0,0-10.9,8c-5.77,5.18-10.5,11.66-14.64,18.18-3.81,6-7.16,12.33-10.38,18.68a157.51,157.51,0,0,0-6.55,14.73,57.91,57.91,0,0,0-3.27,11.84c-.74,4.77-1.4,9.56-.93,14.38a57.6,57.6,0,0,0,2.19,12.08,60.37,60.37,0,0,0,4.85,11.2,68.78,68.78,0,0,0,7.06,9.82,70,70,0,0,0,16,13.67,86.54,86.54,0,0,0,19.73,9.22,91.85,91.85,0,0,0,22,4.2,86.66,86.66,0,0,0,22.77-1.64c8.63-1.63,16.74-4.66,24.78-8.15a129.37,129.37,0,0,0,19.51-10.65c13.52-8.86,25.87-19.48,37.6-30.57,1.33-1.25,2.68-2.48,3.95-3.79a46,46,0,0,0,4-5,24.56,24.56,0,0,0,2.83-5.94,9.21,9.21,0,0,0,.36-1.27,29.63,29.63,0,0,0,.66-5.14,27.92,27.92,0,0,0-.64-5.32,8,8,0,0,0-.31-1.26,30.75,30.75,0,0,0-6.75-11.19c-2.84-3.2-6.06-6.1-9.09-9.11L704,510.22,684.7,491.1c-6.16-6.11-12.23-12.32-18.5-18.3A125.48,125.48,0,0,0,654.51,463a48.84,48.84,0,0,0-9.82-5.75,59.86,59.86,0,0,0-8.42-3.18,63.25,63.25,0,0,0-9.07-1.47,30.29,30.29,0,0,0-5.3-.14,50.6,50.6,0,0,0-9,1.29,44,44,0,0,0-8.08,3.12,38.69,38.69,0,0,0-7.21,5,18.36,18.36,0,0,0-4.83,11.66,16.82,16.82,0,0,0,4.83,11.67c3.15,2.89,7.28,5,11.67,4.83l4.39-.59a16.43,16.43,0,0,0,7.28-4.24l.29-.23-3.34,2.58a20.83,20.83,0,0,1,4.41-2.55l-3.94,1.66a24.73,24.73,0,0,1,6-1.61l-4.39.59a31,31,0,0,1,7.93.06l-4.39-.59a34.54,34.54,0,0,1,8.4,2.3L628,485.77a49.94,49.94,0,0,1,10.83,6.53l-3.34-2.58a132.87,132.87,0,0,1,11.58,10.55l13,12.93,25.8,25.62,7.43,7.36a90.19,90.19,0,0,1,6.68,6.87l-2.58-3.33a12.64,12.64,0,0,1,1.6,2.64l-1.66-3.94a7.85,7.85,0,0,1,.46,1.79l-.59-4.39a6.83,6.83,0,0,1,0,1.5l.59-4.38a8.31,8.31,0,0,1-.43,1.45l1.66-3.95a10.49,10.49,0,0,1-1.21,2l2.58-3.34a67.11,67.11,0,0,1-6.61,6.56c-2.3,2.15-4.61,4.28-7,6.38-4.72,4.23-9.56,8.32-14.57,12.2l3.34-2.58a146.15,146.15,0,0,1-31.84,19.2l3.94-1.66A96.57,96.57,0,0,1,623.46,586l4.39-.59a68.68,68.68,0,0,1-18.06-.08l4.38.59a75.29,75.29,0,0,1-18.8-5.13l4,1.66a67.22,67.22,0,0,1-14.7-8.48l3.34,2.58a53.78,53.78,0,0,1-9.54-9.41l2.58,3.34a43.32,43.32,0,0,1-5.51-9.32l1.66,3.94a38.08,38.08,0,0,1-2.64-9.54l.59,4.38a40.5,40.5,0,0,1,0-10.26l-.59,4.38A61.78,61.78,0,0,1,579,538.56l-1.66,3.94a200.45,200.45,0,0,1,9.53-18.92,118.07,118.07,0,0,1,9.63-15.07l-2.58,3.34a56.17,56.17,0,0,1,9.72-10l-3.34,2.58a39,39,0,0,1,8.16-4.84l-3.94,1.66a36.37,36.37,0,0,1,5.49-1.81,16.88,16.88,0,0,0,9.86-7.58c2.07-3.54,2.95-8.75,1.67-12.72s-3.77-7.84-7.59-9.86a17.6,17.6,0,0,0-12.71-1.66Z" transform="translate(-189.07 -40.26)"/><polygon class="cls-3" points="518.22 392.21 509.14 383.25 452.4 436.4 461.48 445.36 518.22 392.21"/><polygon class="cls-3" points="566.6 438.72 557.06 429.28 500.27 482.38 509.81 491.81 566.6 438.72"/></svg>